<svg xmlns="http://www.w3.org/2000/svg"     width="1280" height="302" viewBox="0 0 1280 302"     font-family="DengXian, sans-serif" font-size="24">  <!-- 背景 -->  <rect width="100%" height="100%" fill="#fff"/>  <!-- 顶部 / 底部粗线 -->  <line x1="10.078" y1="14.684" x2="1269.92" y2="14.684" stroke="#000" stroke-width="2"/>  <line x1="10.078" y1="287.315" x2="1269.92" y2="287.315" stroke="#000" stroke-width="2"/>  <!-- 横向分隔线 -->  <line x1="118.035" y1="75.269" x2="396.077" y2="75.269" stroke="#000"/>  <line x1="409.317" y1="75.269" x2="687.359" y2="75.269" stroke="#000"/>  <line x1="700.599" y1="75.269" x2="978.640" y2="75.269" stroke="#000"/>  <line x1="991.881" y1="75.269" x2="1269.92" y2="75.269" stroke="#000"/>  <line x1="10.078"  y1="105.561" x2="1269.92" y2="105.561" stroke="#000" stroke-width="0.667"/>  <!-- 标题 -->  <text x="547.229" y="39">#Measurement and Strategy</text>  <!-- 列头 -->  <text x="45.525"  y="100">#Node</text>  <text x="145.709" y="97">IPO</text><text x="245.973" y="97">IG</text><text x="332.903" y="97">GN</text>  <text x="436.991" y="97">IPO</text><text x="537.255" y="97">IG</text><text x="624.185" y="97">GN</text>  <text x="728.272" y="97">IPO</text><text x="828.536" y="97">IG</text><text x="915.467" y="97">GN</text>  <text x="1019.55" y="97">IPO</text><text x="1119.82" y="97">IG</text><text x="1206.75" y="97">GN</text>  <!-- 分段刻度 -->  <text x="244.389" y="67">50</text>  <text x="529.338" y="67">100</text>  <text x="820.620" y="67">500</text>  <text x="1105.57" y="67">1000</text>  <!-- 数据行 -->  <g>    <!-- y = 127 -->    <text x="92.025"  y="127">10</text><text x="142.709" y="127">3.51</text>    <text x="235.389" y="127">1.83</text><text x="326.820" y="127" font-weight="700">0.92</text>    <text x="433.991" y="127">5.84</text><text x="526.671" y="127">1.45</text>    <text x="618.102" y="127" font-weight="700">0.93</text><text x="718.939" y="127">19.44</text>    <text x="811.620" y="127">20.72</text><text x="909.383" y="127" font-weight="700">1.92</text>    <text x="1010.22" y="127">35.69</text><text x="1109.23" y="127">7.06</text>    <text x="1200.67" y="127" font-weight="700">6.76</text>    <!-- y = 158 -->    <text x="92.025"  y="158">20</text><text x="130.042" y="158">107.30</text>    <text x="235.389" y="158">4.65</text><text x="326.820" y="158" font-weight="700">1.32</text>    <text x="433.991" y="158">0.89</text><text x="526.671" y="158">5.01</text>    <text x="618.102" y="158" font-weight="700">0.59</text><text x="725.272" y="158">7.94</text>    <text x="816.703" y="158" font-weight="700">3.65</text><text x="910.633" y="158">3.82</text>    <text x="1010.22" y="158">13.13</text><text x="1102.90" y="158">14.70</text>    <text x="1200.67" y="158" font-weight="700">6.30</text>    <!-- y = 188 -->    <text x="92.025"  y="188">50</text><text x="141.459" y="188" font-weight="700">0.56</text>    <text x="235.389" y="188">1.11</text><text x="328.070" y="188">1.44</text>    <text x="432.741" y="188" font-weight="700">0.91</text><text x="526.671" y="188">1.85</text>    <text x="619.352" y="188">1.92</text><text x="725.272" y="188">9.08</text>    <text x="817.953" y="188">3.12</text><text x="909.383" y="188" font-weight="700">2.64</text>    <text x="1010.22" y="188">12.68</text><text x="1107.98" y="188" font-weight="700">4.73</text>    <text x="1201.92" y="188">7.62</text>    <!-- y = 218 -->    <text x="79.358"  y="218">100</text><text x="158.376" y="218">-</text>    <text x="251.056" y="218">-</text><text x="343.737" y="218">-</text>    <text x="432.741" y="218" font-weight="700">0.88</text><text x="526.671" y="218">1.23</text>    <text x="613.018" y="218">15.31</text><text x="724.022" y="218" font-weight="700">3.42</text>    <text x="817.953" y="218">4.07</text><text x="910.633" y="218">8.83</text>    <text x="1016.55" y="218">8.44</text><text x="1107.98" y="218" font-weight="700">5.59</text>    <text x="1195.58" y="218">18.29</text>    <!-- y = 249 -->    <text x="79.358"  y="249">500</text><text x="158.376" y="249">-</text>    <text x="251.056" y="249">-</text><text x="343.737" y="249">-</text>    <text x="449.657" y="249">-</text><text x="542.338" y="249">-</text>    <text x="635.018" y="249">-</text><text x="725.272" y="249">3.92</text>    <text x="816.703" y="249" font-weight="700">2.88</text><text x="897.967" y="249">129.60</text>    <text x="1015.30" y="249" font-weight="700">6.33</text><text x="1102.90" y="249">18.26</text>    <text x="1189.25" y="249">169.21</text>    <!-- y = 279 -->    <text x="66.692"  y="279">1000</text><text x="158.376" y="279">-</text>    <text x="251.056" y="279">-</text><text x="343.737" y="279">-</text>    <text x="449.657" y="279">-</text><text x="542.338" y="279">-</text>    <text x="635.018" y="279">-</text><text x="740.939" y="279">-</text>    <text x="833.620" y="279">-</text><text x="926.300" y="279">-</text>    <text x="1010.22" y="279">10.73</text><text x="1107.98" y="279" font-weight="700">5.10</text>    <text x="1217.58" y="279">-</text>  </g></svg>